<svg xmlns="http://www.w3.org/2000/svg" width="500" height="157" viewBox="0 0 500 157" version="1.1"><path d="M 35 37.046 C 33.905 37.787, 34.309 37.880, 36.500 37.390 C 40.177 36.567, 40.975 35.995, 38.417 36.015 C 37.362 36.024, 35.825 36.487, 35 37.046 M 86.660 37.435 C 92.501 39.262, 96.766 42.561, 100.119 47.849 C 103.139 52.611, 104.005 52.819, 101.585 48.200 C 98.560 42.425, 89.572 35.928, 84.800 36.067 C 83.247 36.112, 83.851 36.556, 86.660 37.435 M 27.500 41.591 L 23.500 45.153 27.500 42.382 C 32.818 38.697, 33.612 37.997, 32.450 38.015 C 31.927 38.023, 29.700 39.632, 27.500 41.591 M 118.454 47.260 C 118.188 47.954, 118.089 62.241, 118.235 79.010 L 118.500 109.500 124.500 109.571 L 130.500 109.643 124.750 109.274 L 119 108.905 119 78.452 L 119 48 124.958 48 L 130.916 48 131.257 55.750 L 131.598 63.500 131.799 55.725 C 131.993 48.219, 131.911 47.917, 129.435 46.975 C 125.772 45.583, 119.030 45.758, 118.454 47.260 M 291.233 73.750 L 291.465 100.500 291.749 74.250 L 292.033 48 297.452 48 L 302.871 48 303.186 72.349 C 303.518 98.114, 303.782 99.543, 308.323 100.190 C 310.104 100.444, 310.555 101.263, 310.805 104.696 L 311.110 108.892 305.805 109.261 L 300.500 109.630 306.750 109.815 L 313 110 313 105.108 C 313 100.609, 312.780 100.162, 310.256 99.528 C 304.936 98.193, 305 98.532, 305 71.878 L 305 47 298 47 L 291 47 291.233 73.750 M 460.246 53.250 C 459.696 53.938, 458.997 57.200, 458.691 60.500 C 458.325 64.450, 458.413 65.475, 458.949 63.500 C 459.397 61.850, 459.817 59.038, 459.882 57.250 C 459.999 54.032, 460.050 54, 465 54 L 470 54 470 59.945 L 470 65.890 474.750 66.195 L 479.500 66.500 479.807 70.750 L 480.115 75 475.057 75 L 470 75 470 86.300 C 470 98.809, 470.496 100, 475.700 100 C 478.944 100, 479 100.076, 479 104.500 C 479 106.975, 479.450 109, 480 109 C 480.550 109, 481 106.750, 481 104 L 481 99 477.035 99 C 471.741 99, 471 97.350, 471 85.566 L 471 76 476 76 L 481 76 481 70.500 L 481 65 476 65 L 471 65 471 59.117 C 471 53.861, 470.760 53.169, 468.750 52.630 C 465.065 51.643, 461.312 51.916, 460.246 53.250 M 18.641 55.210 C 18.303 56.470, 18.113 66.950, 18.219 78.500 L 18.410 99.500 18.955 76.500 C 19.255 63.850, 19.445 53.370, 19.377 53.210 C 19.309 53.051, 18.978 53.951, 18.641 55.210 M 58.373 56.439 C 56.039 57.455, 55.024 58.727, 54.373 61.454 C 53.599 64.691, 52.861 65.367, 47.892 67.384 C 44.808 68.636, 40.819 70.705, 39.027 71.981 C 36.006 74.132, 35.812 74.608, 36.351 78.545 C 37.230 84.960, 41.185 93.950, 44.030 96 C 45.421 97.002, 49.021 98.508, 52.030 99.345 C 55.038 100.183, 58.513 101.175, 59.750 101.551 C 61.393 102.049, 62 101.825, 62 100.720 C 62 98.460, 69.090 92.528, 70.011 94.018 C 70.582 94.942, 70.921 94.936, 71.503 93.995 C 71.921 93.319, 71.642 92.339, 70.878 91.794 C 69.782 91.012, 69.833 90.917, 71.129 91.328 C 73.145 91.967, 82.055 86.092, 84.325 82.626 C 86.156 79.832, 86.556 77.538, 85.050 78.469 C 84.528 78.792, 83.563 78.052, 82.907 76.826 C 82.020 75.169, 82.007 74.498, 82.857 74.214 C 83.485 74.005, 84.020 73.083, 84.045 72.167 C 84.071 71.206, 84.672 71.770, 85.464 73.500 C 86.793 76.402, 86.840 76.277, 86.919 69.673 C 86.993 63.459, 86.746 62.592, 84.171 60.017 C 82.615 58.462, 79.578 56.699, 77.421 56.100 C 72.062 54.612, 62.167 54.788, 58.373 56.439 M 104.429 78.500 C 104.429 91.150, 104.573 96.187, 104.747 89.694 C 104.922 83.200, 104.921 72.850, 104.746 66.694 C 104.571 60.537, 104.428 65.850, 104.429 78.500 M 59.389 57.910 C 56.584 59.136, 55.919 61.169, 57.580 63.440 C 58.753 65.045, 59.179 65.112, 60.719 63.931 C 61.698 63.180, 62.174 62.952, 61.776 63.423 C 61.378 63.895, 62.614 65.117, 64.523 66.140 C 68.543 68.295, 69.396 68.450, 68.405 66.845 C 67.952 66.114, 68.131 65.963, 68.894 66.435 C 69.815 67.004, 69.823 67.509, 68.926 68.589 C 68.084 69.603, 68.071 70, 68.878 70 C 69.495 70, 70 70.477, 70 71.059 C 70 71.641, 69.581 71.859, 69.069 71.543 C 68.557 71.226, 67.880 71.385, 67.564 71.896 C 66.922 72.936, 68.885 72.828, 70.645 71.728 C 71.279 71.331, 72.055 71.702, 72.384 72.558 C 72.710 73.408, 72.563 73.848, 72.058 73.536 C 71.552 73.223, 70.824 73.475, 70.441 74.095 C 70.058 74.716, 70.352 75.600, 71.095 76.059 C 71.839 76.518, 72.695 76.493, 72.998 76.003 C 73.302 75.512, 73.538 77.066, 73.525 79.456 C 73.511 81.845, 73.168 83.597, 72.761 83.348 C 72.355 83.100, 72.305 83.631, 72.649 84.529 C 72.996 85.433, 73.995 85.957, 74.888 85.702 C 75.775 85.450, 77.175 85.076, 78 84.872 C 78.825 84.667, 80.482 83.408, 81.683 82.074 C 83.638 79.902, 83.716 79.433, 82.433 77.601 C 80.631 75.028, 80.491 66.048, 82.250 65.882 C 82.938 65.816, 84.087 65.842, 84.805 65.938 C 86.760 66.200, 83.502 60.339, 80.926 58.961 C 78.227 57.516, 62.091 56.729, 59.389 57.910 M 139.994 64.885 C 136.731 65.942, 131 68.912, 131 69.546 C 131 69.818, 132.907 69.068, 135.238 67.879 C 140.600 65.143, 148.456 64.904, 152.175 67.363 C 156.271 70.071, 157 73.816, 157 92.149 L 157 109 151.527 109 L 146.053 109 145.735 94.499 L 145.417 79.998 145.458 94.749 L 145.500 109.500 152 109.500 L 158.500 109.500 158.424 92 C 158.342 73.017, 157.585 69.740, 152.517 66.419 C 149.601 64.509, 143.473 63.758, 139.994 64.885 M 173.500 64.910 C 167.712 65.865, 166.982 66.599, 167.142 71.309 L 167.284 75.500 167.892 71.567 C 168.638 66.742, 170.594 66.020, 183.168 65.927 C 192.825 65.856, 196.804 67.248, 199.741 71.723 C 201.210 73.963, 201.555 77.255, 201.833 91.703 L 202.165 109 197.166 109 C 194.416 109, 191.938 108.539, 191.658 107.975 C 191.379 107.411, 191.266 107.524, 191.408 108.225 C 191.579 109.070, 193.495 109.500, 197.083 109.500 L 202.500 109.500 202.772 91.310 L 203.045 73.120 200.070 69.733 C 198.428 67.862, 195.343 65.820, 193.182 65.173 C 189.038 63.931, 180.154 63.813, 173.500 64.910 M 208.667 64.667 C 208.300 65.033, 208 67.718, 208 70.632 L 208 75.930 217.954 76.215 L 227.908 76.500 218.407 88.437 C 209.210 99.992, 208.915 100.521, 209.203 104.937 C 209.483 109.236, 209.673 109.508, 212.500 109.645 C 215.350 109.782, 215.363 109.766, 212.750 109.328 C 210.253 108.910, 210 108.476, 210 104.609 C 210 100.709, 210.841 99.309, 220.023 87.926 L 230.045 75.500 219.523 75.216 L 209 74.932 209 70.443 L 209 65.953 226.250 66.226 L 243.500 66.500 243.810 70.239 C 244.094 73.671, 243.291 74.996, 234.060 86.330 C 228.527 93.123, 224 98.978, 224 99.341 C 224 99.703, 228.500 100, 234 100 L 244 100 244 104.500 C 244 108.089, 243.646 109.016, 242.250 109.079 C 241.150 109.129, 240.977 109.349, 241.784 109.673 C 243.712 110.448, 245.757 108.278, 245.491 105.741 C 245.361 104.509, 245.198 102.263, 245.128 100.750 L 245 98 236 98 C 231.050 98, 227 97.729, 227 97.399 C 227 97.068, 231.050 91.939, 236 86 C 244.686 75.580, 245 75.028, 245 70.218 C 245 65.894, 244.702 65.153, 242.750 64.630 C 239.671 63.805, 209.496 63.837, 208.667 64.667 M 249.395 65.169 C 249.113 65.626, 256.784 66, 266.441 66 L 284 66 284 70.362 C 284 74.405, 283.262 75.630, 273.906 87.112 L 263.811 99.500 273.906 99.785 L 284 100.070 284 104.535 L 284 109 267.073 109 C 254.422 109, 250.041 108.684, 249.727 107.750 C 249.486 107.031, 249.354 107.137, 249.417 108 C 249.509 109.264, 252.404 109.543, 267.813 109.773 L 286.101 110.046 285.801 104.273 L 285.500 98.500 276.193 98 L 266.886 97.500 271.193 92.459 C 273.562 89.686, 277.888 84.415, 280.806 80.746 C 285.760 74.518, 286.092 73.757, 285.806 69.287 L 285.500 64.500 267.704 64.419 C 257.917 64.375, 249.678 64.713, 249.395 65.169 M 325.741 65.363 C 323.673 66.137, 321.281 67.352, 320.425 68.063 C 318.572 69.600, 315.991 74.370, 316.022 76.200 C 316.034 76.915, 316.899 75.617, 317.943 73.316 C 320.615 67.432, 324.481 65.640, 334.500 65.640 C 346.954 65.640, 352 69.641, 352 79.518 C 352 86.358, 348.535 90.081, 341 91.335 C 339.625 91.564, 340.447 91.634, 342.826 91.490 C 345.974 91.300, 347.948 90.466, 350.076 88.427 C 352.729 85.886, 353 85.015, 353 79.035 C 353 71.702, 351.658 68.909, 346.969 66.484 C 342.720 64.287, 330.359 63.634, 325.741 65.363 M 360.073 64.955 C 359.297 65.435, 359.042 72.276, 359.230 87.571 L 359.500 109.500 366.250 109.796 L 373 110.091 373 94.595 C 373 80.933, 373.207 78.966, 374.750 77.974 C 376.384 76.923, 376.379 76.887, 374.668 77.424 C 373.661 77.741, 372.648 78, 372.418 78 C 372.188 78, 372 84.975, 372 93.500 L 372 109 366 109 L 360 109 360 87.500 L 360 66 365 66 C 367.750 66, 370.007 66.338, 370.015 66.750 C 370.024 67.162, 370.413 68.103, 370.880 68.840 C 371.565 69.921, 372.570 69.750, 376.102 67.948 C 381.600 65.143, 389.413 64.875, 393.175 67.363 C 397.400 70.157, 398.284 74.093, 398.761 92.250 L 399.202 109 393.128 109 L 387.053 109 386.737 94.750 L 386.420 80.500 386.460 95 L 386.500 109.500 393.329 109.797 L 400.157 110.095 399.829 91.297 C 399.550 75.344, 399.233 72.107, 397.736 69.904 C 394.072 64.513, 385.972 62.876, 377.994 65.916 C 373.460 67.643, 372.325 67.773, 371.500 66.661 C 370.387 65.160, 361.813 63.880, 360.073 64.955 M 407.667 64.667 C 406.164 66.169, 407.287 66.484, 412.998 66.161 L 419 65.822 419 80.189 C 419 97.062, 419.742 99.096, 425.807 98.850 C 429.206 98.712, 429.261 98.665, 426.500 98.262 C 421.154 97.480, 421 96.984, 421 80.494 C 421 65.513, 420.959 65.222, 418.750 64.630 C 415.713 63.816, 408.493 63.840, 407.667 64.667 M 434.667 64.667 C 434.300 65.033, 434 71.983, 434 80.110 C 434 94.246, 433.904 94.954, 431.777 96.443 C 430.555 97.299, 430.073 98, 430.706 98 C 431.339 98, 432.564 97.293, 433.429 96.429 C 434.712 95.145, 435 92.212, 435 80.429 L 435 66 440.500 66 L 446 66 446 87.445 L 446 108.890 441.250 109.295 C 436.824 109.673, 436.875 109.693, 442 109.600 L 447.500 109.500 447.770 87.571 C 447.978 70.696, 447.747 65.457, 446.770 64.837 C 445.237 63.863, 435.605 63.728, 434.667 64.667 M 452.250 66.662 C 451.515 66.959, 451 68.986, 451 71.583 L 451 76 454.750 75.840 C 458.442 75.682, 458.450 75.674, 455.250 75.277 C 452.310 74.912, 452 74.554, 452 71.520 C 452 68.772, 452.496 67.985, 454.750 67.162 C 456.816 66.408, 457.002 66.158, 455.500 66.158 C 454.400 66.158, 452.938 66.385, 452.250 66.662 M 47.500 69.074 C 41.435 71.464, 37.599 74.512, 38.313 76.373 C 38.926 77.971, 45 79.140, 45 77.660 C 45 77.114, 45.261 76.928, 45.581 77.248 C 45.901 77.567, 45.648 78.789, 45.020 79.962 C 44.165 81.559, 43.328 81.924, 41.689 81.413 C 40.485 81.038, 39.149 80.229, 38.720 79.615 C 37.159 77.386, 39.251 84.632, 41.612 89.636 C 44.187 95.094, 45.521 95.986, 54.594 98.317 L 59.688 99.626 64.345 95.053 C 66.906 92.538, 69.401 89.087, 69.890 87.384 C 70.904 83.850, 70.254 79, 68.767 79 C 68.217 79, 68.013 78.059, 68.314 76.909 C 68.779 75.129, 68.514 74.905, 66.534 75.402 C 63.538 76.154, 62.323 73.406, 64.559 70.935 C 66.044 69.294, 66.012 69.077, 64.149 68.080 C 61.038 66.415, 53.037 66.893, 47.500 69.074 M 329.625 75.285 C 328.653 75.995, 327.614 78.455, 327.302 80.785 L 326.737 85 332.287 85 C 338.461 85, 341 84.328, 341 82.693 C 341 81.962, 340.603 81.997, 339.800 82.800 C 339.140 83.460, 336.440 84, 333.800 84 C 329.133 84, 329 83.917, 329 81 C 329 79.333, 329.889 77.111, 331 76 C 333.234 73.766, 332.339 73.300, 329.625 75.285 M 258.715 75.745 L 268.930 76.069 260.312 86.785 C 249.320 100.453, 249.664 100, 250.270 100 C 250.887 100, 270 76.296, 270 75.531 C 270 75.239, 265.163 75.095, 259.250 75.211 L 248.500 75.422 258.715 75.745 M 189.116 79.606 C 189.011 81.507, 188.202 81.779, 180.803 82.396 C 171.544 83.168, 168.357 84.394, 166.229 88 L 164.754 90.500 166.627 88.367 C 169.725 84.839, 172.478 84, 180.966 84 C 189.437 84, 190.735 83.303, 189.701 79.308 C 189.306 77.786, 189.214 77.833, 189.116 79.606 M 315.360 87 C 315.360 92.225, 315.529 94.362, 315.735 91.750 C 315.941 89.138, 315.941 84.862, 315.735 82.250 C 315.529 79.638, 315.360 81.775, 315.360 87 M 457.370 89 C 457.370 94.775, 457.535 97.138, 457.737 94.250 C 457.939 91.362, 457.939 86.638, 457.737 83.750 C 457.535 80.862, 457.370 83.225, 457.370 89 M 47.724 89.227 C 48.278 89.927, 48.981 91.175, 49.287 92 C 49.666 93.024, 49.867 92.820, 49.921 91.357 C 49.964 90.178, 49.261 88.931, 48.359 88.584 C 47.131 88.113, 46.971 88.275, 47.724 89.227 M 185.750 89.723 C 188.858 90.109, 189 90.318, 189 94.484 C 189 98.583, 188.808 98.884, 185.750 99.571 C 183.963 99.972, 182.994 100.472, 183.599 100.683 C 184.203 100.893, 185.890 100.612, 187.349 100.058 C 189.732 99.152, 190 98.541, 190 94.025 L 190 89 186.250 89.160 C 182.558 89.318, 182.550 89.326, 185.750 89.723 M 178.278 91.250 C 175.542 94.785, 176.351 101, 179.547 101 C 180.998 101, 181 100.857, 179.571 99.429 C 178.707 98.564, 178 96.796, 178 95.500 C 178 94.204, 178.707 92.436, 179.571 91.571 C 180.436 90.707, 180.716 90, 180.194 90 C 179.672 90, 178.810 90.563, 178.278 91.250 M 164.310 96.500 C 164.315 99.800, 164.502 101.029, 164.725 99.232 C 164.947 97.435, 164.943 94.735, 164.715 93.232 C 164.486 91.729, 164.304 93.200, 164.310 96.500 M 327 92.953 C 327 93.477, 327.522 95.051, 328.159 96.450 C 329.625 99.668, 334.170 100.987, 343.813 100.994 L 351.127 101 350.813 104.211 C 350.535 107.066, 350.057 107.516, 346.500 108.275 C 344.300 108.744, 338.593 108.986, 333.819 108.814 C 328.496 108.621, 325.743 108.839, 326.703 109.375 C 328.469 110.362, 347.527 109.653, 350.301 108.497 C 351.703 107.913, 352.036 106.832, 351.801 103.623 L 351.500 99.500 341.210 99 C 330.590 98.484, 329.051 97.821, 329.015 93.750 C 329.007 92.787, 328.550 92, 328 92 C 327.450 92, 327 92.429, 327 92.953 M 458.063 101.139 C 458.029 102.041, 458.788 103.637, 459.750 104.686 C 460.712 105.736, 461.181 106.099, 460.790 105.493 C 460.400 104.888, 459.641 103.292, 459.104 101.946 C 458.486 100.400, 458.103 100.103, 458.063 101.139 M 295.757 106.750 C 297.052 107.987, 298.649 108.986, 299.306 108.970 C 299.963 108.953, 299.600 108.440, 298.500 107.830 C 297.400 107.219, 295.803 106.221, 294.951 105.610 C 294.099 105, 294.462 105.513, 295.757 106.750 M 187.539 106.198 C 186.460 106.824, 183.760 107.905, 181.539 108.601 C 179.317 109.297, 178.400 109.891, 179.500 109.920 C 181.492 109.974, 192.404 105.202, 190.500 105.109 C 189.950 105.083, 188.617 105.573, 187.539 106.198 M 431.539 106.198 C 430.460 106.824, 427.760 107.905, 425.539 108.601 C 423.317 109.297, 422.400 109.891, 423.500 109.920 C 425.492 109.974, 436.404 105.202, 434.500 105.109 C 433.950 105.083, 432.617 105.573, 431.539 106.198 M 52.250 121.746 C 57.612 121.925, 66.387 121.925, 71.750 121.746 C 77.112 121.566, 72.725 121.419, 62 121.419 C 51.275 121.419, 46.887 121.566, 52.250 121.746" stroke="none" fill="#c4f0e4" fill-rule="evenodd"/><path d="M 37.071 37.165 C 31.589 38.740, 25.453 43.560, 22.362 48.721 L 19.500 53.500 19.500 78.500 C 19.500 102.397, 19.598 103.683, 21.716 107.643 C 24.485 112.821, 31.246 118.696, 35.935 119.998 C 41.655 121.588, 84.386 121.283, 88.355 119.625 C 93.537 117.460, 99.109 111.962, 101.649 106.507 C 103.878 101.721, 103.981 100.484, 103.990 78.446 C 104 55.637, 103.973 55.338, 101.410 50.195 C 98.236 43.827, 93.094 39.418, 86.568 37.471 C 80.795 35.749, 42.820 35.514, 37.071 37.165 M 119 78.500 L 119 109 125 109 L 131 109 131 94.026 L 131 79.051 133.950 77.526 C 137.983 75.441, 141.612 75.612, 144 78 C 145.816 79.816, 146 81.333, 146 94.500 L 146 109 151.500 109 L 157 109 157 92.149 C 157 73.816, 156.271 70.071, 152.175 67.363 C 148.456 64.904, 140.600 65.143, 135.238 67.879 L 131 70.041 131 59.020 L 131 48 125 48 L 119 48 119 78.500 M 292 73.935 C 292 88.363, 292.433 101.008, 292.975 102.434 C 294.466 106.357, 299.620 108.992, 305.807 108.996 L 311.115 109 310.807 104.750 C 310.555 101.263, 310.109 100.444, 308.323 100.190 C 303.782 99.543, 303.518 98.114, 303.186 72.349 L 302.871 48 297.436 48 L 292 48 292 73.935 M 459.587 59.936 C 458.945 65.607, 458.760 65.924, 455.458 67.014 C 452.410 68.020, 452 68.561, 452 71.578 C 452 74.714, 452.251 75, 455 75 L 458 75 458 87.032 C 458 105.366, 460.559 109, 473.468 109 L 479 109 479 104.500 C 479 100.076, 478.944 100, 475.700 100 C 470.496 100, 470 98.809, 470 86.300 L 470 75 475.057 75 L 480.115 75 479.807 70.750 L 479.500 66.500 474.750 66.195 L 470 65.890 470 59.945 L 470 54 465.129 54 L 460.258 54 459.587 59.936 M 58.373 56.439 C 56.039 57.455, 55.024 58.727, 54.373 61.454 C 53.599 64.691, 52.861 65.367, 47.892 67.384 C 44.808 68.636, 40.819 70.705, 39.027 71.981 C 36.006 74.132, 35.812 74.608, 36.351 78.545 C 37.230 84.960, 41.185 93.950, 44.030 96 C 45.421 97.002, 49.021 98.508, 52.030 99.345 C 55.038 100.183, 58.513 101.175, 59.750 101.551 C 61.393 102.049, 62 101.825, 62 100.720 C 62 99.888, 63.636 97.771, 65.636 96.015 C 68.398 93.590, 69.467 93.137, 70.082 94.133 C 70.716 95.159, 71.032 95.080, 71.535 93.769 C 71.889 92.848, 74.393 90.673, 77.100 88.936 C 84.586 84.132, 86.139 81.327, 86.752 71.495 C 87.267 63.245, 87.230 63.076, 84.308 60.155 C 82.677 58.523, 79.578 56.699, 77.421 56.100 C 72.062 54.612, 62.167 54.788, 58.373 56.439 M 59.389 57.980 C 56.592 59.110, 55.913 61.160, 57.580 63.440 C 58.753 65.045, 59.179 65.112, 60.719 63.931 C 61.698 63.180, 62.174 62.952, 61.776 63.423 C 61.378 63.895, 62.614 65.117, 64.523 66.140 C 68.543 68.295, 69.396 68.450, 68.405 66.845 C 67.952 66.114, 68.131 65.963, 68.894 66.435 C 69.815 67.004, 69.823 67.509, 68.926 68.589 C 68.084 69.603, 68.071 70, 68.878 70 C 69.495 70, 70 70.477, 70 71.059 C 70 71.641, 69.581 71.859, 69.069 71.543 C 68.557 71.226, 67.880 71.385, 67.564 71.896 C 66.922 72.936, 68.885 72.828, 70.645 71.728 C 71.279 71.331, 72.055 71.702, 72.384 72.558 C 72.710 73.408, 72.563 73.848, 72.058 73.536 C 71.552 73.223, 70.824 73.475, 70.441 74.095 C 70.058 74.716, 70.352 75.600, 71.095 76.059 C 71.839 76.518, 72.695 76.493, 72.998 76.003 C 73.302 75.512, 73.538 77.066, 73.525 79.456 C 73.511 81.845, 73.168 83.597, 72.761 83.348 C 72.355 83.100, 72.305 83.631, 72.649 84.529 C 73.082 85.656, 73.929 85.959, 75.388 85.508 C 76.550 85.149, 78.012 84.813, 78.638 84.761 C 79.887 84.657, 83.278 80.516, 83.628 78.665 C 84.282 75.215, 84.683 71.665, 84.298 72.750 C 84.053 73.438, 83.406 74, 82.859 74 C 82.308 74, 82.147 75.001, 82.498 76.250 C 82.994 78.011, 82.903 78.174, 82.081 77 C 81.503 76.175, 81.024 73.393, 81.015 70.817 C 81.003 67.005, 81.372 66.017, 83 65.500 C 85.464 64.718, 85.505 63.846, 83.214 61.016 C 80.454 57.607, 65.140 55.656, 59.389 57.980 M 177.332 66.133 C 173.389 66.489, 169.677 67.082, 169.082 67.450 C 168.487 67.817, 168 69.666, 168 71.559 L 168 75 177.429 75 C 187.923 75, 190.352 76.153, 189.804 80.876 C 189.507 83.444, 189.308 83.512, 180.500 84.049 C 175.550 84.351, 170.739 84.951, 169.810 85.383 C 166.589 86.879, 165 90.730, 165 97.042 C 165 102.439, 165.336 103.490, 167.872 106.026 C 171.933 110.087, 175.082 110.597, 181.804 108.283 C 184.937 107.205, 188.247 105.992, 189.160 105.589 C 190.341 105.067, 191.009 105.453, 191.477 106.928 C 192.025 108.655, 192.956 109, 197.067 109 L 202 109 201.944 93.250 C 201.910 83.766, 201.412 76.145, 200.694 74.094 C 198.286 67.223, 191.362 64.863, 177.332 66.133 M 328 65.880 C 318.702 67.872, 316.054 72.652, 316.024 87.500 C 315.990 104.091, 319.501 108.296, 333.822 108.814 C 338.595 108.986, 344.300 108.744, 346.500 108.275 C 350.057 107.516, 350.535 107.066, 350.813 104.211 L 351.127 101 343.813 100.994 C 334.170 100.987, 329.625 99.668, 328.159 96.450 C 327.522 95.051, 327 93.543, 327 93.100 C 327 92.657, 330.857 91.999, 335.572 91.636 C 345.219 90.895, 349.062 89.354, 350.805 85.528 C 353.576 79.447, 351.231 70.205, 346.265 67.637 C 342.743 65.816, 332.775 64.857, 328 65.880 M 381.500 65.905 C 379.850 66.323, 376.978 67.458, 375.117 68.427 C 372.342 69.873, 371.582 69.947, 370.883 68.844 C 370.414 68.105, 370.024 67.162, 370.015 66.750 C 370.007 66.338, 367.750 66, 365 66 L 360 66 360 87.500 L 360 109 366 109 L 372 109 372 93.547 L 372 78.094 375.750 77.053 C 381.097 75.568, 382.736 75.736, 385 78 C 386.816 79.816, 387 81.333, 387 94.500 L 387 109 393.101 109 L 399.202 109 398.761 92.250 C 398.295 74.496, 397.374 70.130, 393.571 67.639 C 390.624 65.707, 385.296 64.942, 381.500 65.905 M 209 70.443 L 209 74.932 219.523 75.216 L 230.045 75.500 220.023 87.926 C 210.787 99.376, 210 100.691, 210 104.676 L 210 109 227 109 L 244 109 244 104.500 L 244 100 234 100 C 228.500 100, 224 99.703, 224 99.341 C 224 98.978, 228.527 93.123, 234.060 86.330 C 243.291 74.996, 244.094 73.671, 243.810 70.239 L 243.500 66.500 226.250 66.226 L 209 65.953 209 70.443 M 249 70.500 L 249 75 259.500 75 C 265.275 75, 270 75.247, 270 75.549 C 270 75.852, 265.500 81.679, 260 88.500 C 251.021 99.635, 250 101.315, 250 104.951 L 250 109 267 109 L 284 109 284 104.535 L 284 100.070 273.906 99.785 L 263.811 99.500 273.906 87.112 C 283.262 75.630, 284 74.405, 284 70.362 L 284 66 266.500 66 L 249 66 249 70.500 M 407.667 66.667 C 406.812 67.521, 406.796 92.231, 407.645 98.429 C 408.424 104.111, 412.279 108.455, 417.394 109.414 C 420.525 110.002, 426.212 108.619, 433.160 105.581 C 434.337 105.066, 435.010 105.457, 435.477 106.928 C 436.025 108.655, 436.956 109, 441.067 109 L 446 109 446 87.500 L 446 66 440.500 66 L 435 66 434.985 80.250 C 434.976 88.088, 434.630 95.034, 434.214 95.687 C 433.182 97.311, 428.479 99, 424.992 99 C 419.847 99, 419 96.354, 419 80.277 L 419 66 413.667 66 C 410.733 66, 408.033 66.300, 407.667 66.667 M 47.500 69.074 C 41.435 71.464, 37.599 74.512, 38.313 76.373 C 38.926 77.971, 45 79.140, 45 77.660 C 45 77.114, 45.261 76.928, 45.581 77.248 C 45.901 77.567, 45.648 78.789, 45.020 79.962 C 44.165 81.559, 43.328 81.924, 41.689 81.413 C 40.485 81.038, 39.149 80.229, 38.720 79.615 C 37.159 77.386, 39.251 84.632, 41.612 89.636 C 44.187 95.094, 45.521 95.986, 54.594 98.317 L 59.688 99.626 64.345 95.053 C 66.906 92.538, 69.401 89.087, 69.890 87.384 C 70.904 83.850, 70.254 79, 68.767 79 C 68.217 79, 68.013 78.059, 68.314 76.909 C 68.779 75.129, 68.514 74.905, 66.534 75.402 C 63.538 76.154, 62.323 73.406, 64.559 70.935 C 66.044 69.294, 66.012 69.077, 64.149 68.080 C 61.038 66.415, 53.037 66.893, 47.500 69.074 M 329.625 75.285 C 328.653 75.995, 327.614 78.455, 327.302 80.785 L 326.737 85 332.287 85 C 340.101 85, 341 84.477, 341 79.928 C 341 77.138, 340.465 75.784, 339.066 75.035 C 336.408 73.613, 331.743 73.736, 329.625 75.285 M 47.724 89.227 C 48.278 89.927, 48.981 91.175, 49.287 92 C 49.666 93.024, 49.867 92.820, 49.921 91.357 C 49.964 90.178, 49.261 88.931, 48.359 88.584 C 47.131 88.113, 46.971 88.275, 47.724 89.227 M 181 89.892 C 177.645 90.821, 175.667 94.995, 176.965 98.408 C 177.763 100.508, 178.607 101, 181.410 101 C 183.313 101, 186.024 100.561, 187.435 100.025 C 189.719 99.156, 190 98.498, 190 94.025 C 190 89.002, 189.999 89, 186.750 89.100 C 184.963 89.155, 182.375 89.511, 181 89.892" stroke="none" fill="#0cae6d" fill-rule="evenodd"/></svg>